<svg width="205" height="65" viewBox="0 0 205 65" fill="none" xmlns="http://www.w3.org/2000/svg">
<rect width="200" height="60" fill="#FF4655"/>
<rect x="6.25" y="6.25" width="197.5" height="57.5" stroke="white" stroke-width="2.5"/>
<path d="M53.144 47H55.16C58.364 47 60.524 44.984 60.524 41.996V21.8H56.564V41.744C56.564 42.752 55.916 43.4 54.908 43.4H53.144V47ZM68.6299 47.432C72.0499 47.432 74.3179 45.308 74.3179 42.104V26.66C74.3179 23.492 72.0499 21.368 68.6299 21.368C65.2099 21.368 62.9419 23.492 62.9419 26.66V42.104C62.9419 45.308 65.2099 47.432 68.6299 47.432ZM68.6299 43.832C67.5859 43.832 66.9019 43.148 66.9019 42.104V26.696C66.9019 25.652 67.5859 24.968 68.6299 24.968C69.6739 24.968 70.3579 25.652 70.3579 26.696V42.104C70.3579 43.148 69.6739 43.832 68.6299 43.832ZM76.796 47H80.756V21.8H76.796V47ZM83.3351 47H87.2951V33.032L86.9711 30.26H87.6191L87.9431 33.032L91.1111 47H95.8991V21.8H91.9391V35.768L92.2991 38.54H91.6511L91.3271 35.768L88.1591 21.8H83.3351V47ZM103.796 47H107.756V33.032L107.432 30.26H108.08L108.404 33.032L111.572 47H116.36V21.8H112.4V35.768L112.76 38.54H112.112L111.788 35.768L108.62 21.8H103.796V47ZM124.528 47.432C127.948 47.432 130.216 45.308 130.216 42.104V26.66C130.216 23.492 127.948 21.368 124.528 21.368C121.108 21.368 118.84 23.492 118.84 26.66V42.104C118.84 45.308 121.108 47.432 124.528 47.432ZM124.528 43.832C123.484 43.832 122.8 43.148 122.8 42.104V26.696C122.8 25.652 123.484 24.968 124.528 24.968C125.572 24.968 126.256 25.652 126.256 26.696V42.104C126.256 43.148 125.572 43.832 124.528 43.832ZM134.429 47H140.189L141.737 29.432V25.724H142.421V29.432L143.933 47H149.729L152.537 21.8H148.577L147.065 40.592V42.644H146.417V40.592L144.905 21.8H139.433L137.921 40.592V42.644H137.273V40.592L135.761 21.8H131.621L134.429 47Z" fill="white"/>
</svg>
